# xmcd
#
# Track frame offsets:
# 150
# 15859
# 44541
# 67268
# 92852
# 114998
# 138662
# 155126
# 175888
#
# Disc length: 2524 seconds
#
#
# Revision: 0
# Processed by: cddbd v1.5PL3 Copyright (c) Steve Scherf et al.
# Submitted via: FreeRIP 2.60 
#
DISCID=7b09da09
DTITLE=Debbie Ritter - Bluesday Afternoon
DYEAR=1900
DGENRE=Blues
TTITLE0=It's Alright By Me
TTITLE1=Bright Moon
TTITLE2=Bluesday Afternoon
TTITLE3=Miss You Already
TTITLE4=Late Again
TTITLE5=With You After Midnight
TTITLE6=Walkin' Shoes
TTITLE7=Half A Mind To Leave
TTITLE8=Sugarfootin'
EXTD=Bluesfestradio.com
EXTT0=
EXTT1=
EXTT2=
EXTT3=
EXTT4=
EXTT5=
EXTT6=
EXTT7=
EXTT8=
PLAYORDER=
